<svg t="1583520211684" class="icon" viewBox="0 0 1024 1024" version="1.1" xmlns="http://www.w3.org/2000/svg" p-id="2604" width="128" height="128"><path d="M 908.629 743.765 H 257.877 c -19.2853 0 -37.376 -7.50933 -50.8587 -21.1627 c -13.4827 -13.6533 -20.992 -31.5733 -20.8213 -50.8587 l 2.38933 -479.232 c 0 -19.1147 -6.656 -31.9147 -39.7653 -37.2053 h -0.170666 l -95.5733 -16.384 c -9.216 -1.536 -15.5307 -10.4107 -13.9947 -19.6267 c 1.536 -9.216 10.4107 -15.5307 19.6267 -13.9947 l 95.4027 16.384 c 45.3973 7.168 68.4373 31.0613 68.4373 70.9973 L 220.16 672.085 c 0 10.0693 3.75467 19.456 10.9227 26.4533 c 7.168 7.168 16.5547 11.0933 26.624 11.0933 h 650.752 c 9.38667 0 17.0667 7.68 17.0667 17.0667 s -7.50933 17.0667 -16.896 17.0667 Z" fill="#d81e06" p-id="2605"></path><path d="M 859.989 645.803 l -602.624 -1.87733 c -18.944 -0.170667 -36.6933 -7.50933 -50.0053 -20.992 c -13.312 -13.4827 -20.48 -31.232 -20.48 -50.176 l 1.87733 -353.963 L 870.571 269.653 c 30.8907 1.19467 55.1253 26.2827 55.1253 57.1733 V 580.267 c 0 36.1813 -29.5253 65.536 -65.7067 65.536 Z M 257.707 609.792 l 602.453 1.87733 c 17.408 0 31.5733 -14.1653 31.5733 -31.4027 V 326.827 c 0 -12.4587 -9.89867 -22.6987 -22.3573 -23.04 h -0.682667 l -645.632 -48.128 l -1.536 317.44 c 0 9.728 3.75467 18.944 10.5813 25.9413 c 6.48533 6.82667 15.7013 10.752 25.6 10.752 Z" fill="#d81e06" p-id="2606"></path><path d="M 324.096 800.085 m -63.6587 0 a 63.6587 63.6587 0 1 0 127.317 0 a 63.6587 63.6587 0 1 0 -127.317 0 Z" fill="#d81e06" p-id="2607"></path><path d="M 324.096 880.811 c -44.544 0 -80.7253 -36.1813 -80.7253 -80.7253 s 36.1813 -80.7253 80.7253 -80.7253 c 44.544 0 80.7253 36.1813 80.7253 80.7253 s -36.1813 80.7253 -80.7253 80.7253 Z m 0 -127.317 c -25.7707 0 -46.592 20.8213 -46.592 46.592 s 20.8213 46.592 46.592 46.592 s 46.592 -20.8213 46.592 -46.592 s -20.8213 -46.592 -46.592 -46.592 Z" fill="#d81e06" p-id="2608"></path><path d="M 812.715 800.085 m -63.6587 0 a 63.6587 63.6587 0 1 0 127.317 0 a 63.6587 63.6587 0 1 0 -127.317 0 Z" fill="#d81e06" p-id="2609"></path><path d="M 812.715 880.811 c -44.544 0 -80.7253 -36.1813 -80.7253 -80.7253 s 36.1813 -80.7253 80.7253 -80.7253 s 80.7253 36.1813 80.7253 80.7253 s -36.1813 80.7253 -80.7253 80.7253 Z m 0 -127.317 c -25.7707 0 -46.592 20.8213 -46.592 46.592 s 20.8213 46.592 46.592 46.592 s 46.592 -20.8213 46.592 -46.592 s -20.8213 -46.592 -46.592 -46.592 Z" fill="#d81e06" p-id="2610"></path><path d="M 710.315 417.963 H 362.496 c -9.38667 0 -17.0667 -7.68 -17.0667 -17.0667 s 7.68 -17.0667 17.0667 -17.0667 h 347.819 c 9.38667 0 17.0667 7.68 17.0667 17.0667 s -7.68 17.0667 -17.0667 17.0667 Z M 710.315 516.096 H 362.496 c -9.38667 0 -17.0667 -7.68 -17.0667 -17.0667 s 7.68 -17.0667 17.0667 -17.0667 h 347.819 c 9.38667 0 17.0667 7.68 17.0667 17.0667 s -7.68 17.0667 -17.0667 17.0667 Z" fill="#d81e06" p-id="2611"></path></svg>