<svg t="1583256915719" class="icon" viewBox="0 0 1024 1024" version="1.1" xmlns="http://www.w3.org/2000/svg" p-id="4772" width="128" height="128"><path d="M512.09999 669.574612c-184.581974 0-334.737311-150.165335-334.737311-334.737311S327.518016 0.09999 512.09999 0.09999s334.737311 150.155336 334.737311 334.737311S696.681965 669.574612 512.09999 669.574612z m0-590.712313c-141.136217 0-255.975002 114.828786-255.975002 255.975002s114.838785 255.975002 255.975002 255.975002 255.975002-114.838785 255.975003-255.975002-114.838785-255.975002-255.975003-255.975002z" fill="#666666" p-id="4773"></path><path d="M512.09999 510.820115A176.74274 176.74274 0 0 1 386.782228 458.95518a39.376155 39.376155 0 0 1 55.684562-55.684562 98.61037 98.61037 0 0 0 139.256401 0 39.376155 39.376155 0 0 1 55.694561 55.684562 176.752739 176.752739 0 0 1-125.317762 51.864935z" fill="#FF7B1C" p-id="4774"></path><path d="M690.102607 543.316942a39.386154 39.386154 0 1 0-27.457318 73.832789c139.46638 51.844937 230.187521 174.392969 243.046265 328.087961H118.498428c12.868743-153.654995 103.589884-276.223025 242.976272-328.067962A39.386154 39.386154 0 1 0 334.017381 543.33694C164.513934 606.400781 54.524675 755.086261 39.816112 941.028103 37.936295 964.905771 45.495557 988.613456 60.044136 1004.381916c11.678859 12.658764 27.057358 19.618084 43.285773 19.618084h817.520164c16.228415 0 31.606913-6.999316 43.285773-19.618084 14.568577-15.76846 22.127839-39.456147 20.248023-63.313817-14.718563-186.001836-124.717821-334.677317-294.281262-397.751157z" fill="#666666" p-id="4775"></path></svg>
